<svg width="348" height="251" viewBox="0 0 348 251" fill="none" xmlns="http://www.w3.org/2000/svg">
<path d="M84.5119 11.2429C84.1098 16.2691 83.8082 21.1446 83.6072 25.8692C83.5067 30.4933 83.4564 34.062 83.4564 36.5751C83.4564 38.6861 83.5067 40.6966 83.6072 42.6066C83.7077 44.5165 83.8082 46.1249 83.9088 47.4317H80.4407C78.7317 39.0882 76.3694 32.5541 73.3537 27.8294C70.3379 23.0043 67.0206 19.6367 63.4017 17.7267C59.8834 15.7162 56.3148 14.711 52.6959 14.711H50.7356C48.122 14.711 46.1618 14.9623 44.8549 15.4649C43.5481 15.867 42.6434 16.7215 42.1408 18.0283C41.7387 19.3351 41.5376 21.3959 41.5376 24.2106V100.509C41.5376 104.53 41.9397 107.596 42.7439 109.707C43.6487 111.717 45.3073 113.024 47.7199 113.627C50.1325 114.23 53.6509 114.532 58.275 114.532V118C54.8571 117.899 50.3838 117.799 44.8549 117.698C39.3261 117.598 33.4454 117.548 27.2129 117.548C22.5888 117.548 17.9646 117.598 13.3405 117.698C8.71636 117.799 4.34354 117.899 0.222033 118V114.984C3.3383 114.783 5.65036 114.381 7.15823 113.778C8.6661 113.175 9.67134 111.969 10.174 110.159C10.6766 108.35 10.9279 105.635 10.9279 102.017V27.2263C10.9279 23.5069 10.6766 20.7927 10.174 19.0838C9.67134 17.2744 8.61584 16.0681 7.00744 15.4649C5.49957 14.7612 3.23777 14.3591 0.222033 14.2586V11.2429C4.64511 11.3434 9.31951 11.4439 14.2452 11.5445C19.2714 11.5445 24.1971 11.5947 29.0223 11.6952C33.948 11.6952 38.4716 11.6952 42.5931 11.6952C46.8152 11.6952 50.2833 11.6952 52.9974 11.6952C57.6216 11.6952 62.8489 11.6952 68.6793 11.6952C74.6102 11.5947 79.8878 11.4439 84.5119 11.2429ZM62.6478 62.812C62.6478 62.812 62.6478 63.3146 62.6478 64.3199C62.6478 65.3251 62.6478 65.8277 62.6478 65.8277H37.014C37.014 65.8277 37.014 65.3251 37.014 64.3199C37.014 63.3146 37.014 62.812 37.014 62.812H62.6478ZM67.0206 42.9081C66.6185 48.638 66.4175 53.0109 66.4175 56.0266C66.518 59.0423 66.5683 61.8068 66.5683 64.3199C66.5683 66.833 66.6185 69.5974 66.719 72.6131C66.8196 75.6289 67.0709 80.0017 67.473 85.7316H64.0049C63.4017 82.0122 62.1452 78.6446 60.2352 75.6289C58.4258 72.6131 56.0634 70.2508 53.1482 68.5419C50.233 66.7325 46.8654 65.8277 43.0455 65.8277V62.812C45.8602 62.812 48.4236 62.2089 50.7356 61.0026C53.0477 59.7963 55.0582 58.1879 56.7671 56.1774C58.5766 54.1669 60.0342 52.0056 61.1399 49.6935C62.3462 47.3815 63.1504 45.1197 63.5525 42.9081H67.0206ZM127.337 37.6306C135.177 37.6306 141.963 38.9877 147.693 41.7018C153.523 44.3155 158.047 48.638 161.264 54.6695C164.48 60.701 166.089 68.7932 166.089 78.9462C166.089 89.0992 164.48 97.1914 161.264 103.223C158.047 109.254 153.523 113.577 147.693 116.191C141.963 118.804 135.177 120.111 127.337 120.111C119.596 120.111 112.811 118.804 106.98 116.191C101.15 113.577 96.6263 109.254 93.4095 103.223C90.1927 97.1914 88.5843 89.0992 88.5843 78.9462C88.5843 68.7932 90.1927 60.701 93.4095 54.6695C96.6263 48.638 101.15 44.3155 106.98 41.7018C112.811 38.9877 119.596 37.6306 127.337 37.6306ZM127.337 40.6463C124.321 40.6463 121.808 43.6621 119.797 49.6935C117.787 55.725 116.781 65.4759 116.781 78.9462C116.781 92.4165 117.787 102.167 119.797 108.199C121.808 114.13 124.321 117.095 127.337 117.095C130.352 117.095 132.865 114.13 134.876 108.199C136.886 102.167 137.892 92.4165 137.892 78.9462C137.892 65.4759 136.886 55.725 134.876 49.6935C132.865 43.6621 130.352 40.6463 127.337 40.6463ZM214.216 37.6306C222.057 37.6306 228.842 38.9877 234.572 41.7018C240.402 44.3155 244.926 48.638 248.143 54.6695C251.36 60.701 252.968 68.7932 252.968 78.9462C252.968 89.0992 251.36 97.1914 248.143 103.223C244.926 109.254 240.402 113.577 234.572 116.191C228.842 118.804 222.057 120.111 214.216 120.111C206.475 120.111 199.69 118.804 193.859 116.191C188.029 113.577 183.505 109.254 180.289 103.223C177.072 97.1914 175.463 89.0992 175.463 78.9462C175.463 68.7932 177.072 60.701 180.289 54.6695C183.505 48.638 188.029 44.3155 193.859 41.7018C199.69 38.9877 206.475 37.6306 214.216 37.6306ZM214.216 40.6463C211.2 40.6463 208.687 43.6621 206.676 49.6935C204.666 55.725 203.661 65.4759 203.661 78.9462C203.661 92.4165 204.666 102.167 206.676 108.199C208.687 114.13 211.2 117.095 214.216 117.095C217.231 117.095 219.745 114.13 221.755 108.199C223.766 102.167 224.771 92.4165 224.771 78.9462C224.771 65.4759 223.766 55.725 221.755 49.6935C219.745 43.6621 217.231 40.6463 214.216 40.6463ZM338.641 0.0846497V101.413C338.641 105.937 339.244 109.305 340.45 111.516C341.757 113.627 343.969 114.683 347.085 114.683V117.849C343.969 117.548 340.852 117.397 337.736 117.397C332.71 117.397 328.035 117.548 323.713 117.849C319.39 118.151 315.319 118.704 311.499 119.508V18.1791C311.499 13.6555 310.896 10.3382 309.69 8.22714C308.483 6.0156 306.272 4.90983 303.055 4.90983V1.74331C306.272 2.04489 309.388 2.19567 312.404 2.19567C317.43 2.19567 322.105 2.04489 326.427 1.74331C330.85 1.34121 334.921 0.788325 338.641 0.0846497ZM295.817 37.6306C300.24 37.6306 303.96 38.1835 306.976 39.2892C309.991 40.2945 312.655 41.9531 314.967 44.2652L313.309 45.9239C312.002 44.8181 310.544 44.0139 308.936 43.5113C307.327 42.9081 305.82 42.6066 304.412 42.6066C299.788 42.6066 296.32 45.572 294.008 51.503C291.696 57.4339 290.54 66.5314 290.54 78.7954C290.54 87.6416 290.992 94.5275 291.897 99.4532C292.802 104.278 294.008 107.646 295.516 109.556C297.124 111.365 298.833 112.27 300.643 112.27C303.457 112.27 305.97 111.265 308.182 109.254C310.393 107.143 311.499 104.53 311.499 101.413V108.802C309.489 112.622 307.026 115.487 304.111 117.397C301.195 119.206 297.526 120.111 293.103 120.111C287.373 120.111 282.146 118.704 277.421 115.889C272.797 112.974 269.128 108.45 266.414 102.318C263.7 96.1862 262.343 88.1945 262.343 78.343C262.343 69.1953 263.7 61.656 266.414 55.725C269.229 49.6935 273.149 45.1699 278.175 42.1542C283.201 39.1385 289.082 37.6306 295.817 37.6306ZM80.5914 141.243V144.259L34.903 244.532H41.2361C43.8497 244.532 47.0162 243.929 50.7356 242.722C54.5556 241.516 58.3755 239.556 62.1954 236.842C66.0154 234.128 69.383 230.509 72.2982 225.985C75.2134 221.361 77.0228 215.631 77.7265 208.795H81.1946C80.893 212.414 80.7422 217.038 80.7422 222.668C80.7422 225.181 80.7925 228.8 80.893 233.524C80.9935 238.149 81.2951 242.974 81.7977 248C78.0783 247.799 74.0071 247.698 69.584 247.698C65.1609 247.598 60.7378 247.548 56.3148 247.548C51.9922 247.548 47.9712 247.548 44.2518 247.548C37.4161 247.548 30.2286 247.598 22.6893 247.698C15.2505 247.698 8.21374 247.799 1.57911 248V244.984L47.2675 144.711H39.7282C36.6119 144.711 33.2946 145.214 29.7763 146.219C26.2579 147.224 22.8401 148.983 19.5228 151.496C16.2054 153.909 13.3405 157.226 10.9279 161.448C8.51531 165.67 6.85666 170.998 5.95193 177.432H2.48384C2.68489 176.125 2.78541 174.517 2.78541 172.607C2.88593 170.697 2.9362 168.686 2.9362 166.575C2.9362 164.062 2.83567 160.493 2.63462 155.869C2.5341 151.145 2.28279 146.269 1.88069 141.243C4.99695 141.343 8.41479 141.444 12.1342 141.544C15.8536 141.645 19.573 141.695 23.2924 141.695C27.0118 141.695 30.3794 141.695 33.3951 141.695C40.9345 141.695 48.8257 141.695 57.0687 141.695C65.4122 141.595 73.2532 141.444 80.5914 141.243ZM131.018 167.631C138.859 167.631 145.644 168.988 151.374 171.702C157.205 174.315 161.728 178.638 164.945 184.67C168.162 190.701 169.77 198.793 169.77 208.946C169.77 219.099 168.162 227.191 164.945 233.223C161.728 239.254 157.205 243.577 151.374 246.191C145.644 248.804 138.859 250.111 131.018 250.111C123.277 250.111 116.492 248.804 110.662 246.191C104.831 243.577 100.308 239.254 97.0908 233.223C93.874 227.191 92.2656 219.099 92.2656 208.946C92.2656 198.793 93.874 190.701 97.0908 184.67C100.308 178.638 104.831 174.315 110.662 171.702C116.492 168.988 123.277 167.631 131.018 167.631ZM131.018 170.646C128.002 170.646 125.489 173.662 123.479 179.694C121.468 185.725 120.463 195.476 120.463 208.946C120.463 222.416 121.468 232.167 123.479 238.199C125.489 244.13 128.002 247.095 131.018 247.095C134.034 247.095 136.547 244.13 138.557 238.199C140.568 232.167 141.573 222.416 141.573 208.946C141.573 195.476 140.568 185.725 138.557 179.694C136.547 173.662 134.034 170.646 131.018 170.646ZM237.198 167.631C241.822 167.631 245.441 168.234 248.054 169.44C250.769 170.546 252.829 171.953 254.237 173.662C255.745 175.472 256.85 177.884 257.554 180.9C258.258 183.916 258.609 187.987 258.609 193.114V233.977C258.609 238.199 259.213 241.064 260.419 242.572C261.726 244.08 263.937 244.833 267.054 244.833V248C265.043 247.899 261.977 247.799 257.856 247.698C253.835 247.497 249.864 247.397 245.943 247.397C241.721 247.397 237.6 247.497 233.579 247.698C229.558 247.799 226.542 247.899 224.532 248V244.833C227.145 244.833 228.955 244.08 229.96 242.572C230.965 241.064 231.468 238.199 231.468 233.977V184.971C231.468 182.86 231.217 181.101 230.714 179.694C230.211 178.286 229.407 177.231 228.301 176.527C227.296 175.823 225.889 175.472 224.079 175.472C222.27 175.472 220.511 175.924 218.802 176.829C217.193 177.733 215.836 179.04 214.73 180.749C213.725 182.357 213.223 184.217 213.223 186.328V233.977C213.223 238.199 213.725 241.064 214.73 242.572C215.836 244.08 217.646 244.833 220.159 244.833V248C218.249 247.899 215.434 247.799 211.715 247.698C207.995 247.497 204.175 247.397 200.255 247.397C196.033 247.397 191.761 247.497 187.438 247.698C183.116 247.799 179.848 247.899 177.637 248V244.833C180.753 244.833 182.914 244.08 184.121 242.572C185.428 241.064 186.081 238.199 186.081 233.977V186.177C186.081 181.654 185.478 178.336 184.272 176.225C183.065 174.014 180.854 172.908 177.637 172.908V169.742C180.854 170.043 183.97 170.194 186.986 170.194C192.012 170.194 196.686 170.043 201.009 169.742C205.432 169.34 209.503 168.787 213.223 168.083V178.94C215.635 174.919 218.852 172.054 222.873 170.345C226.994 168.535 231.769 167.631 237.198 167.631ZM312.139 167.631C320.985 167.631 327.921 170.244 332.947 175.472C338.074 180.598 340.638 189.243 340.638 201.407H293.441L293.14 198.542H318.623C318.723 193.616 318.522 189.093 318.02 184.971C317.517 180.749 316.713 177.381 315.607 174.868C314.501 172.355 312.993 171.099 311.083 171.099C308.369 171.099 306.158 173.26 304.449 177.583C302.74 181.805 301.634 189.093 301.131 199.447L301.735 200.653C301.634 201.658 301.584 202.663 301.584 203.669C301.584 204.674 301.584 205.729 301.584 206.835C301.584 213.872 302.438 219.35 304.147 223.271C305.957 227.191 308.168 229.906 310.782 231.413C313.496 232.921 316.21 233.675 318.924 233.675C320.332 233.675 321.99 233.474 323.9 233.072C325.911 232.67 328.072 231.765 330.384 230.358C332.696 228.85 334.958 226.588 337.169 223.573L339.733 224.477C338.527 228.498 336.566 232.519 333.852 236.54C331.239 240.461 327.821 243.728 323.599 246.341C319.377 248.854 314.25 250.111 308.218 250.111C301.785 250.111 295.904 248.804 290.576 246.191C285.349 243.577 281.177 239.254 278.061 233.223C274.945 227.191 273.387 219.099 273.387 208.946C273.387 199.296 275.096 191.455 278.513 185.423C281.931 179.291 286.555 174.818 292.386 172.003C298.317 169.088 304.901 167.631 312.139 167.631Z" fill="black"/>
</svg>
