<svg width="34" height="35" viewBox="0 0 34 35" fill="none" xmlns="http://www.w3.org/2000/svg">
<path d="M5.47472 23.3474C4.25922 18.4854 3.65147 16.0558 4.92788 14.421C6.20288 12.7861 8.71039 12.7861 13.7211 12.7861H20.2803C25.2925 12.7861 27.7971 12.7861 29.0735 14.421C30.35 16.0544 29.7422 18.4868 28.5267 23.3474C27.7532 26.44 27.3679 27.9855 26.2147 28.8865C25.0615 29.7861 23.4678 29.7861 20.2803 29.7861H13.7211C10.5336 29.7861 8.93988 29.7861 7.78672 28.8865C6.63355 27.9855 6.2468 26.44 5.47472 23.3474Z" stroke="#8C8C8C" stroke-width="2.125"/>
<path d="M27.6252 13.4945L26.6194 9.80404C26.2312 8.38029 26.0372 7.66912 25.6391 7.13221C25.2422 6.59878 24.7031 6.18786 24.0836 5.94646C23.4602 5.70279 22.7236 5.70279 21.2502 5.70279M6.37524 13.4945L7.38108 9.80404C7.76924 8.38029 7.96333 7.66912 8.36141 7.13221C8.75833 6.59878 9.29739 6.18786 9.91691 5.94646C10.5402 5.70279 11.2769 5.70279 12.7502 5.70279" stroke="#8C8C8C" stroke-width="2.125"/>
<path d="M12.7502 5.7028C12.7502 5.32708 12.8995 4.96674 13.1652 4.70106C13.4309 4.43539 13.7912 4.28613 14.1669 4.28613H19.8336C20.2093 4.28613 20.5696 4.43539 20.8353 4.70106C21.101 4.96674 21.2502 5.32708 21.2502 5.7028C21.2502 6.07852 21.101 6.43886 20.8353 6.70453C20.5696 6.97021 20.2093 7.11947 19.8336 7.11947H14.1669C13.7912 7.11947 13.4309 6.97021 13.1652 6.70453C12.8995 6.43886 12.7502 6.07852 12.7502 5.7028Z" stroke="#8C8C8C" stroke-width="2.125"/>
</svg>
