<svg width="101" height="35" viewBox="0 0 101 35" fill="none" xmlns="http://www.w3.org/2000/svg">
<path d="M26.9732 26.0147H7.09767M17.0354 26.0147V17.4966M21.2945 26.0147V20.3359M12.7764 26.0147V20.3359M26.9732 31.6934V16.5454C27.5003 16.3533 27.9844 16.0589 28.3974 15.6793C28.8105 15.2996 29.1446 14.842 29.3804 14.3329C29.6161 13.8238 29.749 13.2731 29.7714 12.7125C29.7938 12.1518 29.7052 11.5923 29.5108 11.066C29.3164 10.5397 29.0199 10.057 28.6384 9.64557C28.2569 9.23416 27.7979 8.90215 27.2877 8.66862C26.7775 8.43508 26.2263 8.30462 25.6655 8.28471C25.1048 8.2648 24.5457 8.35585 24.0202 8.55262C23.495 5.96028 20.5278 3.2998 17.0354 3.2998C13.543 3.2998 10.5759 5.96028 10.0506 8.55262C8.99069 8.16103 7.81864 8.20654 6.79228 8.67911C5.76592 9.15169 4.96932 10.0126 4.57774 11.0725C4.18616 12.1325 4.23166 13.3045 4.70424 14.3309C5.17682 15.3572 6.03776 16.1538 7.09767 16.5454V31.6934H26.9732Z" stroke="black" stroke-width="2.83936"/>
<path d="M43.2749 10.6024L47.2012 17.2381H47.3533L51.2986 10.6024H55.9474L50.0057 20.3374L56.0805 30.0723H51.3461L47.3533 23.4271H47.2012L43.2083 30.0723H38.4929L44.5868 20.3374L38.607 10.6024H43.2749Z" fill="#FE8026"/>
<path d="M70.5783 10.6024H74.6948V23.2464C74.6948 24.6661 74.3557 25.9083 73.6775 26.9731C73.0057 28.0378 72.0645 28.8681 70.854 29.4639C69.6435 30.0533 68.2333 30.348 66.6235 30.348C65.0074 30.348 63.594 30.0533 62.3835 29.4639C61.173 28.8681 60.2318 28.0378 59.56 26.9731C58.8882 25.9083 58.5522 24.6661 58.5522 23.2464V10.6024H62.6687V22.8947C62.6687 23.6362 62.8303 24.2953 63.1535 24.8721C63.4831 25.4488 63.9458 25.902 64.5415 26.2316C65.1373 26.5611 65.8313 26.7259 66.6235 26.7259C67.4221 26.7259 68.1161 26.5611 68.7055 26.2316C69.3012 25.902 69.7607 25.4488 70.084 24.8721C70.4135 24.2953 70.5783 23.6362 70.5783 22.8947V10.6024ZM78.0815 10.6024H83.1582L88.52 23.6837H88.7482L94.11 10.6024H99.1866V30.0723H95.1937V17.3998H95.0321L89.9935 29.9772H87.2746L82.236 17.3522H82.0744V30.0723H78.0815V10.6024Z" fill="black"/>
</svg>
